<?xml version="1.0" encoding="utf-8"?><!-- Uploaded to: SVG Repo, www.svgrepo.com, Generator: SVG Repo Mixer Tools -->
<svg fill="#000000" width="800px" height="800px" viewBox="0 0 24 24" id="discount" data-name="Flat Line" xmlns="http://www.w3.org/2000/svg" class="icon flat-line"><path id="secondary" d="M20.22,9.33c-.3-.91-.1-2.08-.65-2.83S17.84,5.56,17.08,5,15.8,3.39,14.89,3.1,13,3.36,12,3.36s-2-.55-2.89-.26S7.68,4.46,6.92,5,5,5.73,4.43,6.5s-.35,1.92-.65,2.83S2.64,11,2.64,12s.86,1.79,1.14,2.67.1,2.08.65,2.83,1.73.94,2.49,1.49S8.2,20.61,9.11,20.9,11,20.64,12,20.64s2,.55,2.89.26,1.43-1.36,2.19-1.91,1.94-.72,2.49-1.49.35-1.92.65-2.83S21.36,13,21.36,12,20.5,10.21,20.22,9.33Z" style="fill: rgb(44, 169, 188); stroke-width: 2;"></path><line id="primary-upstroke" x1="9.45" y1="9.5" x2="9.55" y2="9.5" style="fill: none; stroke: rgb(0, 0, 0); stroke-linecap: round; stroke-linejoin: round; stroke-width: 2.5;"></line><line id="primary-upstroke-2" data-name="primary-upstroke" x1="14.45" y1="14.5" x2="14.55" y2="14.5" style="fill: none; stroke: rgb(0, 0, 0); stroke-linecap: round; stroke-linejoin: round; stroke-width: 2.5;"></line><path id="primary" d="M9,15l6-6m5.22.33c-.3-.91-.1-2.08-.65-2.83S17.84,5.56,17.08,5,15.8,3.39,14.89,3.1,13,3.36,12,3.36s-2-.55-2.89-.26S7.68,4.46,6.92,5,5,5.73,4.43,6.5s-.35,1.92-.65,2.83S2.64,11,2.64,12s.86,1.79,1.14,2.67.1,2.08.65,2.83,1.73.94,2.49,1.49S8.2,20.61,9.11,20.9,11,20.64,12,20.64s2,.55,2.89.26,1.43-1.36,2.19-1.91,1.94-.72,2.49-1.49.35-1.92.65-2.83S21.36,13,21.36,12,20.5,10.21,20.22,9.33Z" style="fill: none; stroke: rgb(0, 0, 0); stroke-linecap: round; stroke-linejoin: round; stroke-width: 2;"></path></svg>